# File created by Blade
# Date/Time:  Wed Apr 08 17:19:54 2015
# Frame Rate: 120.000 fps
#------------------------------------------------------
:FULLY-SPECIFIED
:DEGREES
1275
root 10.057633 36.747271 2.997874 199.554297 -30.220146 -165.058240
Spine 8.638304 -3.314108 -8.370379
Head -10.169371 17.581030 15.522210
LeftShoulder -7.428892 12.774127 17.703247
LeftArm 16.127141 20.972683 -77.980002
LeftForeArm 21.999859 -0.000000 23.034669
LeftHand -11.356588 0.000000 -16.327872
LeftHandThumb1 -26.253704 0.000000 33.147579
RightShoulder -39.899920 -49.826388 29.042065
RightArm 50.370098 -24.507422 61.853270
RightForeArm 12.884466 -0.000000 -1.582645
RightHand -8.809747 -0.000000 10.078264
RightHandThumb1 -24.326973 -0.000000 -32.862282
LeftUpLeg -39.720671 31.118331 -14.787884
LeftLeg 15.145266 -0.000000 -0.000000
LeftFoot -18.062035 18.030004 -11.008964
LeftToeBase 5.739890 -0.000000 -0.000000
RightUpLeg 13.559968 2.874257 -8.429601
RightLeg 139.893790 -0.000000 -0.000000
RightFoot 40.078213 5.840112 20.462293
RightToeBase 20.085778 -0.000000 -0.000000
1276
root 10.029293 36.742003 2.989311 199.466332 -30.129998 -165.104473
Spine 8.615434 -3.344680 -8.281493
Head -10.138675 17.685447 15.562055
LeftShoulder -7.431863 12.722966 17.720530
LeftArm 16.200614 21.020761 -77.804053
LeftForeArm 21.864542 -0.000000 23.184633
LeftHand -11.470845 0.000000 -16.210805
LeftHandThumb1 -26.253704 0.000000 33.147579
RightShoulder -39.962359 -49.888479 29.081967
RightArm 50.285024 -24.382191 62.002374
RightForeArm 12.930203 -0.000000 -1.598942
RightHand -8.807959 -0.000000 10.072415
RightHandThumb1 -24.326973 -0.000000 -32.862282
LeftUpLeg -39.554335 31.113606 -14.715934
LeftLeg 15.231079 -0.000000 -0.000000
LeftFoot -18.117677 18.085692 -11.024780
LeftToeBase 5.656753 -0.000000 -0.000000
RightUpLeg 13.624827 2.753799 -8.573290
RightLeg 139.806792 -0.000000 -0.000000
RightFoot 40.101913 5.844151 20.687109
RightToeBase 20.189357 -0.000000 -0.000000
1277
root 9.999208 36.737698 2.981818 199.395035 -30.043327 -165.166644
Spine 8.591355 -3.361120 -8.213475
Head -10.138983 17.776907 15.613408
LeftShoulder -7.409873 12.726759 17.755226
LeftArm 16.335411 20.881707 -77.695477
LeftForeArm 21.810356 0.000000 23.241269
LeftHand -11.495968 -0.000000 -16.222533
LeftHandThumb1 -26.253704 0.000000 33.147579
RightShoulder -39.980315 -49.906250 29.090710
RightArm 50.132962 -24.291767 62.130898
RightForeArm 12.982568 0.000000 -1.553850
RightHand -8.795099 -0.000000 10.043822
RightHandThumb1 -24.326973 -0.000000 -32.862282
LeftUpLeg -39.340565 31.060959 -14.638059
LeftLeg 15.237610 -0.000000 -0.000000
LeftFoot -18.152892 18.187651 -11.028809
LeftToeBase 5.622617 -0.000000 -0.000000
RightUpLeg 13.697289 2.675041 -8.722133
RightLeg 139.725341 -0.000000 -0.000000
RightFoot 40.015675 6.024847 20.892341
RightToeBase 19.957563 -0.000000 -0.000000
1278
root 9.972735 36.735251 2.972930 199.312712 -29.972445 -165.191169
Spine 8.576099 -3.380882 -8.116262
Head -10.182723 17.816442 15.629269
LeftShoulder -7.388856 12.640353 17.803878
LeftArm 16.323127 20.650650 -77.673856
LeftForeArm 21.804971 -0.000000 23.361716
LeftHand -11.525166 0.000000 -16.247649
LeftHandThumb1 -26.253704 0.000000 33.147579
RightShoulder -40.025289 -49.942657 29.135426
RightArm 50.080076 -24.243574 62.174708
RightForeArm 13.099128 -0.000000 -1.573000
RightHand -8.729717 0.000000 9.920001
RightHandThumb1 -24.326973 -0.000000 -32.862282
LeftUpLeg -39.120576 31.004631 -14.531898
LeftLeg 15.199923 -0.000000 -0.000000
LeftFoot -18.174399 18.305984 -11.025785
LeftToeBase 5.536943 -0.000000 -0.000000
RightUpLeg 13.771187 2.582054 -8.837299
RightLeg 139.679766 -0.000000 -0.000000
RightFoot 39.712835 6.198005 21.068303
RightToeBase 19.689414 -0.000000 -0.000000
1279
root 9.941317 36.731723 2.965082 199.245114 -29.873776 -165.250979
Spine 8.557823 -3.367619 -8.066874
Head -10.239148 17.891316 15.649233
LeftShoulder -7.310166 12.508011 17.877507
LeftArm 16.252773 20.109324 -77.817217
LeftForeArm 21.910951 -0.000000 23.274976
LeftHand -11.475025 -0.000000 -16.566788
LeftHandThumb1 -26.253704 0.000000 33.147579
RightShoulder -40.033929 -49.966579 29.146883
RightArm 49.971223 -24.174619 62.227045
RightForeArm 13.076342 -0.000000 -1.513707
RightHand -8.714365 0.000000 9.218045
RightHandThumb1 -24.326973 -0.000000 -32.862282
LeftUpLeg -38.860479 30.977232 -14.488021
LeftLeg 15.069490 -0.000000 -0.000000
LeftFoot -18.161225 18.460399 -10.987579
LeftToeBase 5.481429 -0.000000 -0.000000
RightUpLeg 13.829354 2.509683 -9.023717
RightLeg 139.638417 -0.000000 -0.000000
RightFoot 39.436357 6.273785 21.135289
RightToeBase 19.467756 -0.000000 -0.000000
1280
root 9.912570 36.726940 2.956050 199.166396 -29.782135 -165.303739
Spine 8.554149 -3.368929 -8.010479
Head -10.313452 17.901291 15.630369
LeftShoulder -7.303654 12.510992 17.898057
LeftArm 16.324793 19.784344 -77.818683
LeftForeArm 21.819650 -0.000000 23.250199
LeftHand -11.368945 -0.000000 -16.242151
LeftHandThumb1 -26.253704 0.000000 33.147579
RightShoulder -40.002629 -49.972332 29.097398
RightArm 49.806818 -24.115242 62.345837
RightForeArm 13.021953 -0.000000 -1.457069
RightHand -8.624443 -0.000000 8.989957
RightHandThumb1 -24.326973 -0.000000 -32.862282
LeftUpLeg -38.594439 30.966067 -14.450533
LeftLeg 14.923539 -0.000000 -0.000000
LeftFoot -18.157977 18.617043 -10.927767
LeftToeBase 5.398472 -0.000000 -0.000000
RightUpLeg 13.897059 2.460355 -9.188432
RightLeg 139.590359 -0.000000 -0.000000
RightFoot 39.212857 6.364324 21.160921
RightToeBase 19.265090 -0.000000 -0.000000
1281
root 9.890116 36.724295 2.947478 199.105132 -29.705881 -165.319537
Spine 8.529547 -3.394314 -7.914906
Head -10.408087 17.911835 15.538549
LeftShoulder -7.386303 12.526736 17.847344
LeftArm 16.394553 19.866582 -77.601778
LeftForeArm 21.471471 -0.000000 23.450250
LeftHand -11.632785 0.000000 -15.949272
LeftHandThumb1 -26.253704 0.000000 33.147579
RightShoulder -40.011611 -49.964258 29.073729
RightArm 49.707293 -24.082977 62.409515
RightForeArm 13.053775 -0.000000 -1.447118
RightHand -8.636869 -0.000000 8.782519
RightHandThumb1 -24.326973 -0.000000 -32.862282
LeftUpLeg -38.395649 30.970332 -14.416352
LeftLeg 14.786586 -0.000000 -0.000000
LeftFoot -18.127620 18.770986 -10.829530
LeftToeBase 5.310915 -0.000000 -0.000000
RightUpLeg 13.892621 2.421092 -9.296568
RightLeg 139.489654 -0.000000 -0.000000
RightFoot 39.308871 6.384003 21.096469
RightToeBase 19.044085 -0.000000 -0.000000
1282
root 9.868913 36.722607 2.940496 199.056172 -29.637967 -165.331702
Spine 8.487802 -3.398252 -7.821817
Head -10.491852 17.907819 15.464326
LeftShoulder -7.386685 12.515458 17.847310
LeftArm 16.443508 19.836078 -77.471033
LeftForeArm 21.307193 -0.000000 23.525623
LeftHand -11.797857 -0.000000 -15.681460
LeftHandThumb1 -26.253704 0.000000 33.147579
RightShoulder -40.024852 -49.966298 29.075024
RightArm 49.562260 -23.959537 62.559099
RightForeArm 13.012511 -0.000000 -1.419695
RightHand -8.597595 -0.000000 8.761230
RightHandThumb1 -24.326973 -0.000000 -32.862282
LeftUpLeg -38.220000 30.984515 -14.406703
LeftLeg 14.627821 -0.000000 -0.000000
LeftFoot -18.058633 18.932856 -10.675710
LeftToeBase 5.200813 -0.000000 -0.000000
RightUpLeg 13.866201 2.417418 -9.375756
RightLeg 139.421209 -0.000000 -0.000000
RightFoot 39.481863 6.399037 21.120247
RightToeBase 18.866895 -0.000000 -0.000000
1283
root 9.850341 36.721306 2.932386 199.003187 -29.602891 -165.325444
Spine 8.447730 -3.415123 -7.718330
Head -10.583638 17.913971 15.422149
LeftShoulder -7.380459 12.459226 17.895416
LeftArm 16.448251 19.664012 -77.466580
LeftForeArm 21.356731 -0.000000 23.538813
LeftHand -11.830991 0.000000 -15.795894
LeftHandThumb1 -26.253704 0.000000 33.147579
RightShoulder -40.050153 -49.986236 29.108368
RightArm 49.438646 -23.775432 62.724825
RightForeArm 12.944072 -0.000000 -1.413522
RightHand -8.661728 -0.000000 8.714108
RightHandThumb1 -24.326973 -0.000000 -32.862282
LeftUpLeg -38.057005 30.987858 -14.382349
LeftLeg 14.469718 -0.000000 -0.000000
LeftFoot -17.984798 19.083101 -10.510705
LeftToeBase 5.095532 -0.000000 -0.000000
RightUpLeg 13.885210 2.378953 -9.418756
RightLeg 139.404426 -0.000000 -0.000000
RightFoot 39.393723 6.428311 21.006038
RightToeBase 18.652181 -0.000000 -0.000000
1284
root 9.832298 36.719326 2.924295 198.961445 -29.592794 -165.334327
Spine 8.415600 -3.454150 -7.626566
Head -10.670266 17.901220 15.362579
LeftShoulder -7.406475 12.458126 17.924324
LeftArm 16.528960 19.693849 -77.369602
LeftForeArm 21.468431 0.000000 23.525606
LeftHand -11.814032 -0.000000 -15.678592
LeftHandThumb1 -26.253704 0.000000 33.147579
RightShoulder -40.101012 -50.005474 29.165621
RightArm 49.392306 -23.626822 62.795916
RightForeArm 12.930081 -0.000000 -1.444204
RightHand -8.800568 -0.000000 8.715851
RightHandThumb1 -24.326973 -0.000000 -32.862282
LeftUpLeg -37.912097 30.998231 -14.384678
LeftLeg 14.327317 -0.000000 -0.000000
LeftFoot -17.903542 19.204159 -10.331694
LeftToeBase 4.954621 -0.000000 -0.000000
RightUpLeg 13.901318 2.198777 -9.495203
RightLeg 139.390615 -0.000000 -0.000000
RightFoot 39.295616 6.073477 20.790694
RightToeBase 18.468082 -0.000000 -0.000000
